HIERARCHY
ROOT Hips
{
	OFFSET 0.00000 0.00000 0.00000
	CHANNELS 6 Xposition Yposition Zposition Zrotation Yrotation Xrotation 
	JOINT LHipJoint
	{
		OFFSET 0 0 0
		CHANNELS 3 Zrotation Yrotation Xrotation
		JOINT LeftHip
		{
			OFFSET 1.85590 -1.73949 0.84976
			CHANNELS 3 Zrotation Yrotation Xrotation
			JOINT LeftKnee
			{
				OFFSET 2.36836 -6.50702 0.00000
				CHANNELS 3 Zrotation Yrotation Xrotation
				JOINT LeftAnkle
				{
					OFFSET 2.53268 -6.95849 0.00000
					CHANNELS 3 Zrotation Yrotation Xrotation
					JOINT LeftToe
					{
						OFFSET 0.15935 -0.43781 1.94506
						CHANNELS 3 Zrotation Yrotation Xrotation
						End Site
						{
							OFFSET 0.00000 -0.00000 1.00661
						}
					}
				}
			}
		}
	}
	JOINT RHipJoint
	{
		OFFSET 0 0 0
		CHANNELS 3 Zrotation Yrotation Xrotation
		JOINT RightHip
		{
			OFFSET -1.68297 -1.73949 0.84976
			CHANNELS 3 Zrotation Yrotation Xrotation
			JOINT RightKnee
			{
				OFFSET -2.44709 -6.72334 0.00000
				CHANNELS 3 Zrotation Yrotation Xrotation
				JOINT RightAnkle
				{
					OFFSET -2.43843 -6.69953 0.00000
					CHANNELS 3 Zrotation Yrotation Xrotation
					JOINT RightToe
					{
						OFFSET -0.20854 -0.57295 2.02172
						CHANNELS 3 Zrotation Yrotation Xrotation
						End Site
						{
							OFFSET -0.00000 -0.00000 1.05594
						}
					}
				}
			}
		}
	}
	JOINT lowerback
	{
		OFFSET 0 0 0
		CHANNELS 3 Zrotation Yrotation Xrotation
		JOINT Chest
		{
			OFFSET -0.01560 2.23971 -0.03712
			CHANNELS 3 Zrotation Yrotation Xrotation
			JOINT Chest2
			{
				OFFSET 0.05490 2.19225 -0.19086
				CHANNELS 3 Zrotation Yrotation Xrotation
				JOINT lowerneck
				{
					OFFSET 0 0 0
					CHANNELS 3 Zrotation Yrotation Xrotation
					JOINT Neck
					{
						OFFSET -0.12403 1.43168 0.27585
						CHANNELS 3 Zrotation Yrotation Xrotation
						JOINT Head
						{
							OFFSET 0.17855 1.46173 -0.32578
							CHANNELS 3 Zrotation Yrotation Xrotation
							End Site
							{
								OFFSET 0.07217 1.51590 -0.14537
							}
						}
					}
				}
				JOINT LeftCollar
				{
					OFFSET 0 0 0
					CHANNELS 3 Zrotation Yrotation Xrotation
					JOINT LeftShoulder
					{
						OFFSET 3.27650 0.85634 0.05396
CHANNELS 3 Zrotation Xrotation Yrotation
						JOINT LeftElbow
						{
OFFSET 0 -4.967550 0.000000
CHANNELS 3 Zrotation Xrotation Yrotation
							JOINT LeftWrist
							{
OFFSET 0 -3.357510 0.000000
CHANNELS 3 Zrotation Xrotation Yrotation
								JOINT lhand
								{
									OFFSET 0 0 0
CHANNELS 3 Zrotation Xrotation Yrotation
									JOINT LFingers
									{
OFFSET 0 -0.796970 0.000000
CHANNELS 3 Zrotation Xrotation Yrotation
										End Site
										{
OFFSET 0 -0.642540 0.000000
										}
									}
								}
								JOINT LThumb
								{
OFFSET 0 0.000000 0.000000
CHANNELS 3 Zrotation Xrotation Yrotation
									End Site
									{
OFFSET 0 -0.652350 0.652350
									}
								}
							}
						}
					}
				}
				JOINT RightCollar
				{
					OFFSET 0 0 0
					CHANNELS 3 Zrotation Yrotation Xrotation
					JOINT RightShoulder
					{
						OFFSET -3.24434 1.02034 0.34688
CHANNELS 3 Zrotation Xrotation Yrotation
						JOINT RightElbow
						{
OFFSET 0 -5.218590 -0.000000
CHANNELS 3 Zrotation Xrotation Yrotation
							JOINT RightWrist
							{
OFFSET 0 -3.365040 0.000000
CHANNELS 3 Zrotation Xrotation Yrotation
								JOINT rhand
								{
									OFFSET 0 0 0
CHANNELS 3 Zrotation Xrotation Yrotation
									JOINT RFingers
									{
OFFSET 0 -0.620440 0.000000
CHANNELS 3 Zrotation Xrotation Yrotation
										End Site
										{
OFFSET 0 -0.500220 0.000000
										}
									}
								}
								JOINT RThumb
								{
OFFSET 0 0.000000 0.000000
CHANNELS 3 Zrotation Xrotation Yrotation
									End Site
									{
OFFSET 0 -0.507860 0.507860
									}
								}
							}
						}
					}
				}
			}
		}
	}
}
MOTION
Frames: 10
Frame Time: 0.008333333333333333
7.551400 15.923000 -40.332400 -3.987800 -2.202200 7.053700 0.000000 0.000000 0.000000 -13.961800 -0.937000 -38.742700 12.538500 18.609100 67.685700 0.090600 9.745700 -15.303700 3.755900 11.828300 35.127100 0.000000 0.000000 0.000000 29.828200 9.073100 -11.982600 -2.118200 -9.108100 26.134000 -0.680600 9.744900 -15.228300 -0.027900 1.077700 -2.962600 1.557900 -0.102200 -2.609500 3.002500 -0.210300 -0.557700 2.199700 -0.104300 0.897100 -11.083300 -4.051900 -18.134700 11.794300 -5.117800 18.063700 5.263100 -1.916700 9.274500 0.000000 -0.000000 0.000000 5.442600 14.776300 -45.920500 16.222800 -25.821900 3.742500 12.325500 -11.322800 18.973900 0.000000 0.000000 0.000000 -7.125000 0.000000 0.000000 -10.312400 10.832600 -8.330100 0.000000 -0.000000 0.000000 -11.681600 5.599800 46.279300 -22.608600 -33.658000 -6.920100 -32.503400 -7.448600 20.614800 0.000000 0.000000 0.000000 7.125000 0.000000 -0.000000 -4.215500 53.969500 0.930700
7.545219 15.923764 -40.244339 -4.487069 -2.225882 7.210238 0.000000 0.000000 0.000000 -13.309187 -1.164098 -39.951114 12.253967 18.494856 66.790362 0.097684 9.486238 -15.078407 2.007589 8.514537 24.540768 0.000000 0.000000 0.000000 30.488105 9.343535 -11.438466 -2.062293 -8.994273 25.777587 -0.729701 9.507940 -15.647772 -0.087973 1.843376 -5.074824 1.951885 0.004127 -2.269061 3.126050 -0.060498 -0.691598 2.109902 -0.029642 0.564856 -10.939818 -4.091139 -18.289363 11.675403 -5.174054 18.101272 5.188581 -1.940382 9.315683 0.000000 0.000000 0.000000 5.478019 15.617815 -45.423314 16.388019 -26.043790 3.814866 11.035414 -10.758735 20.482612 0.000000 0.000000 0.000000 -7.125000 0.000000 0.000000 -11.157943 9.458064 -9.367878 0.000000 0.000000 0.000000 -11.850709 5.312836 46.598627 -23.092521 -34.187966 -7.191021 -32.306720 -7.939605 20.299432 0.000000 0.000000 0.000000 7.125000 0.000000 0.000000 -4.047364 53.571418 0.854862
7.538299 15.918849 -40.154721 -4.971674 -2.228443 7.416294 0.000000 0.000000 0.000000 -12.640548 -1.538816 -41.085505 11.899106 18.345021 65.665604 0.107102 9.117317 -14.758592 0.756746 4.324476 12.184064 0.000000 0.000000 0.000000 31.132762 9.670761 -11.025770 -2.039295 -8.947467 25.631069 -0.796966 9.273936 -16.231434 -0.138206 2.382043 -6.563356 2.366174 0.120411 -1.978644 3.199266 0.104551 -0.850313 1.956273 0.051317 0.236345 -10.762534 -4.159668 -18.375449 11.594549 -5.298613 18.159110 5.112856 -1.991487 9.360134 0.000000 0.000000 0.000000 5.617880 16.337150 -45.129721 16.467002 -26.149841 3.849501 10.818411 -10.660086 20.793844 0.000000 0.000000 0.000000 -7.125000 0.000000 0.000000 -11.302424 9.168553 -9.552385 0.000000 0.000000 0.000000 -11.892464 5.006890 46.817441 -23.495262 -34.624965 -7.418259 -32.298969 -8.042640 20.413227 0.000000 0.000000 0.000000 7.125000 0.000000 0.000000 -4.022684 53.698422 0.861993
7.531859 15.908572 -40.061954 -5.405379 -2.225148 7.650882 0.000000 0.000000 0.000000 -12.014305 -2.041452 -42.087826 11.477398 18.159518 64.320597 0.119062 8.711482 -14.436616 0.031411 -0.299078 -0.828705 0.000000 0.000000 0.000000 31.715460 9.994661 -10.710854 -2.039012 -8.946832 25.629203 -0.872139 9.065935 -16.888600 -0.174356 2.689426 -7.415155 2.749942 0.241378 -1.758418 3.238107 0.276126 -1.012401 1.783795 0.134780 -0.055350 -10.651272 -4.243714 -18.455386 11.627889 -5.459690 18.293190 5.087320 -2.052153 9.440306 0.000000 0.000000 0.000000 5.812799 16.939365 -45.018085 16.462125 -26.143275 3.847406 11.475694 -10.944474 20.189958 0.000000 0.000000 0.000000 -7.125000 0.000000 0.000000 -10.875876 9.703049 -9.057204 0.000000 0.000000 0.000000 -11.869814 4.671061 46.970558 -23.826221 -34.979808 -7.606831 -32.460580 -7.834248 20.867054 0.000000 0.000000 0.000000 7.125000 0.000000 0.000000 -4.133239 54.245821 0.941076
7.533178 15.891695 -39.955071 -5.550806 -2.300431 7.809642 0.000000 0.000000 0.000000 -11.790540 -2.631769 -42.548968 10.970698 17.917558 62.682362 0.136216 8.664743 -14.642255 0.292748 -3.057804 -8.465673 0.000000 0.000000 0.000000 31.932280 9.967715 -10.356039 -2.015816 -8.898843 25.479471 -0.900752 9.031280 -17.139867 -0.164008 2.608934 -7.191807 2.793556 0.339371 -1.764390 3.314709 0.407802 -1.056501 1.840326 0.200340 -0.099034 -11.217629 -4.272952 -18.884581 12.278418 -5.495387 18.868854 5.436093 -2.025137 9.763175 0.000000 0.000000 0.000000 5.810299 17.386686 -45.067880 16.339201 -25.978334 3.793374 12.363393 -11.356932 19.771944 0.000000 0.000000 0.000000 -7.125000 0.000000 0.000000 -10.299935 10.031265 -8.492305 0.000000 0.000000 0.000000 -12.107886 4.225614 47.220645 -24.098462 -35.267744 -7.763509 -32.775740 -7.576731 21.342571 0.000000 0.000000 0.000000 7.125000 0.000000 0.000000 -4.408951 54.851695 1.069834
7.539553 15.885355 -39.834299 -5.454383 -2.476630 7.847738 0.000000 0.000000 0.000000 -11.973039 -2.953543 -42.623784 10.373286 17.606666 60.718513 0.185922 8.394439 -15.058183 0.416931 -4.138892 -11.468481 0.000000 0.000000 0.000000 31.842430 9.729346 -9.886086 -1.997297 -8.860350 25.359456 -0.912310 9.185323 -17.265319 -0.137880 2.383872 -6.568148 2.316904 0.380999 -2.151208 3.625602 0.442577 -0.817884 2.433944 0.219694 0.356336 -11.562547 -4.279843 -18.857103 12.212188 -5.370214 18.631518 5.480748 -1.999964 9.665938 0.000000 0.000000 0.000000 5.108992 17.390279 -44.608275 15.983781 -25.496564 3.640175 11.317289 -10.849711 20.118928 0.000000 0.000000 0.000000 -7.125000 0.000000 0.000000 -10.971556 9.787954 -9.130699 0.000000 0.000000 0.000000 -12.946966 3.429843 47.727321 -24.397963 -35.581381 -7.937288 -33.145421 -7.720328 21.297823 0.000000 0.000000 0.000000 7.125000 0.000000 0.000000 -4.821015 54.881506 1.170624
7.548203 15.891262 -39.703994 -5.172763 -2.707235 7.798675 0.000000 0.000000 0.000000 -12.423561 -3.113369 -42.484536 9.721774 17.244898 58.546593 0.235717 8.077881 -15.421287 0.475205 -4.418829 -12.258372 0.000000 0.000000 0.000000 31.520142 9.305354 -9.331055 -1.975968 -8.815669 25.220419 -0.909875 9.504892 -17.293947 -0.105889 2.092352 -5.761049 1.752372 0.411048 -2.539464 3.831243 0.463565 -0.566902 2.968219 0.232574 0.824991 -11.665066 -4.239788 -18.599778 11.913713 -5.192975 18.098462 5.396701 -1.965807 9.401783 0.000000 0.000000 0.000000 4.442176 17.408957 -44.048302 15.609832 -24.988735 3.479552 10.692984 -10.365449 20.154715 0.000000 0.000000 0.000000 -7.125000 0.000000 0.000000 -11.363227 9.816012 -9.483414 0.000000 0.000000 0.000000 -13.707297 2.685258 48.265486 -24.696736 -35.892089 -8.111577 -33.512845 -7.995355 20.948183 0.000000 0.000000 0.000000 7.125000 0.000000 0.000000 -5.271431 54.564811 1.239854
7.556537 15.920222 -39.564193 -4.665090 -2.959890 7.653388 0.000000 0.000000 0.000000 -13.117705 -3.160247 -42.242576 9.034020 16.824731 56.200742 0.237454 7.947178 -15.305168 0.528889 -4.658568 -12.937584 0.000000 0.000000 0.000000 30.918783 8.608780 -8.678164 -1.938813 -8.737330 24.977139 -0.888554 10.067291 -17.203455 -0.078804 1.805527 -4.968774 1.682784 0.488206 -2.366675 3.356350 0.584893 -0.696702 2.517356 0.293620 0.594489 -11.330460 -4.084569 -18.294341 11.945798 -5.090121 17.838306 5.357601 -1.900525 9.234063 0.000000 0.000000 0.000000 4.922138 18.134283 -43.927669 15.522604 -24.869075 3.442744 14.273432 -11.319540 18.071034 0.000000 0.000000 0.000000 -7.125000 0.000000 0.000000 -9.017515 11.550363 -7.146383 0.000000 0.000000 0.000000 -13.326230 2.622685 48.522101 -24.952725 -36.155370 -8.262073 -33.792169 -8.090014 20.407731 0.000000 0.000000 0.000000 7.125000 0.000000 0.000000 -5.640553 54.008662 1.250897
7.562425 15.930114 -39.434232 -4.308018 -3.167627 7.593602 0.000000 0.000000 0.000000 -13.460392 -3.451733 -42.113746 8.341763 16.353475 53.766610 0.209225 8.023446 -14.982522 0.463938 -4.357000 -12.085163 0.000000 0.000000 0.000000 30.524061 8.315920 -7.938049 -1.881867 -8.614907 24.598380 -0.888025 10.317203 -17.244829 -0.063338 1.619937 -4.456575 1.271301 0.547629 -2.623394 3.313913 0.660356 -0.503454 2.712257 0.329260 0.929643 -11.632113 -4.056546 -18.594641 12.197252 -4.986823 17.824648 5.515855 -1.837856 9.285657 0.000000 0.000000 0.000000 4.700633 18.318693 -43.574380 15.432763 -24.745467 3.405102 16.265152 -11.573331 16.743747 0.000000 0.000000 0.000000 -7.125000 0.000000 0.000000 -7.676973 12.698102 -5.869003 0.000000 0.000000 0.000000 -13.613887 1.897780 48.757868 -25.150731 -36.357389 -8.379214 -33.886537 -8.212191 20.352268 0.000000 0.000000 0.000000 7.125000 0.000000 0.000000 -5.750836 53.965912 1.270778
7.566501 15.934953 -39.311056 -4.118800 -3.355779 7.605386 0.000000 0.000000 0.000000 -13.646488 -3.687542 -42.019650 7.697615 15.885912 51.455516 0.207460 7.951068 -14.880429 0.368467 -3.883927 -10.752144 0.000000 0.000000 0.000000 30.331895 8.205821 -7.182177 -1.810873 -8.459433 24.119116 -0.889497 10.398878 -17.273594 -0.051093 1.454645 -4.000812 0.909802 0.617984 -3.000516 3.399523 0.741818 -0.243133 3.014950 0.366656 1.399651 -12.057519 -4.077756 -19.020729 12.476614 -4.914840 17.894040 5.704493 -1.791589 9.397348 0.000000 0.000000 0.000000 4.353243 18.381226 -43.163604 15.327446 -24.600166 3.361192 17.334632 -11.555210 16.092553 0.000000 0.000000 0.000000 -7.125000 0.000000 0.000000 -6.949524 13.254134 -5.210207 0.000000 0.000000 0.000000 -14.042856 1.012348 48.948797 -25.346481 -36.555757 -8.495578 -33.962400 -8.159600 20.671112 0.000000 0.000000 0.000000 7.125000 0.000000 0.000000 -5.798556 54.346994 1.335610
